{"title":"Lebanon.2009.SWESUB.DVDRip.XviD-Zen_Bud","uid":5714918,"size":739114528,"categoryP":"video","categoryS":"movies","magnet":"?xt=urn:btih:1d261db99b9173a65a69e7ce4dc0383691089f59&amp;dn=Lebanon.2009.SWESUB.DVDRip.XviD-Zen_Bud&amp;tr=udp%3A%2F%2Ftracker.openbittorrent.com%3A80&amp;tr=udp%3A%2F%2Fopen.demonii.com%3A1337&amp;tr=udp%3A%2F%2Ftracker.coppersurfer.tk%3A6969&amp;tr=udp%3A%2F%2Fexodus.desync.com%3A6969","seeders":0,"leechers":1,"uploader":null,"files":1,"time":1280050549,"description":"General\nComplete name                    : Lebanon.2009.avi\nFormat                           : AVI\nFile size                        : 705 MiB\nDuration                         : 1h 29mn\nOverall bit rate                 : 1 101 Kbps\n\nVideo\n\nFormat                           : MPEG-4 Visual\nCodec ID/Hint                    : XviD\nDuration                         : 1h 29mn\nBit rate                         : 960 Kbps\nWidth                            : 712 pixels\nHeight                           : 576 pixels\nDisplay aspect ratio             : 16:9\nStream size                      : 615 MiB (87%)\nWriting library                  : XviD 1.1.2 (UTC 2006-11-01)\n\nAudio\n\nFormat                           : MPEG Audio\nCodec ID/Hint                    : MP3\nDuration                         : 1h 29mn\nBit rate                         : 128 Kbps\nChannel(s)                       : 2 channels\nSampling rate                    : 48.0 KHz\nStream size                      : 81.9 MiB (12%)","torrent":{"xt":"urn:btih:1d261db99b9173a65a69e7ce4dc0383691089f59","amp;dn":"Lebanon.2009.SWESUB.DVDRip.XviD-Zen_Bud","amp;tr":["udp%3A%2F%2Ftracker.openbittorrent.com%3A80","udp%3A%2F%2Fopen.demonii.com%3A1337","udp%3A%2F%2Ftracker.coppersurfer.tk%3A6969","udp%3A%2F%2Fexodus.desync.com%3A6969"],"infoHash":"1d261db99b9173a65a69e7ce4dc0383691089f59","infoHashBuffer":{"type":"Buffer","data":[29,38,29,185,155,145,115,166,90,105,231,206,77,192,56,54,145,8,159,89]},"announce":[],"urlList":[]}}